<?xml version="1.0" standalone="no"?>
<!DOCTYPE svg PUBLIC "-//W3C//DTD SVG 20010904//EN"
 "http://www.w3.org/TR/2001/REC-SVG-20010904/DTD/svg10.dtd">
<svg version="1.0" xmlns="http://www.w3.org/2000/svg"
 width="124.000000pt" height="124.000000pt" viewBox="0 0 124.000000 124.000000"
 preserveAspectRatio="xMidYMid meet">
<metadata>
Created by potrace 1.14, written by Peter Selinger 2001-2017
</metadata>
<g transform="translate(0.000000,124.000000) scale(0.100000,-0.100000)"
fill="#000000" stroke="none">
<path d="M334 1094 c-87 -51 -136 -85 -145 -103 -7 -14 -21 -37 -29 -51 -35
-53 -83 -143 -74 -138 5 3 93 53 196 112 l188 107 187 -109 c104 -60 197 -114
208 -120 19 -10 20 -7 19 57 0 37 -4 73 -7 78 -4 6 -31 25 -60 41 -28 16 -119
69 -201 116 -82 47 -149 86 -150 86 0 0 -60 -35 -132 -76z"/>
<path d="M543 1164 c4 -4 86 -52 184 -108 l178 -102 3 -242 c1 -133 4 -242 6
-242 3 0 32 16 65 36 l61 36 0 242 -1 241 -128 73 -129 72 -123 0 c-67 0 -119
-3 -116 -6z"/>
<path d="M267 858 l-207 -121 0 -151 0 -151 58 -102 c31 -57 60 -103 65 -103
4 0 7 98 7 218 l0 219 205 119 c112 65 201 122 197 125 -4 4 -32 21 -62 38
l-56 30 -207 -121z"/>
<path d="M1070 878 c1 -35 1 -133 0 -218 l-1 -155 -112 -68 c-62 -38 -154 -92
-205 -122 l-94 -53 62 -36 c34 -20 65 -35 68 -33 4 2 98 57 210 121 l202 118
0 153 0 153 -57 101 c-32 55 -62 101 -66 101 -5 0 -8 -28 -7 -62z"/>
<path d="M277 687 l-57 -32 2 -245 3 -245 125 -70 125 -71 122 -1 c67 0 120 3
118 7 -2 4 -71 44 -152 90 -81 45 -164 92 -183 105 l-35 22 1 236 c0 131 -2
237 -5 237 -3 0 -32 -15 -64 -33z"/>
<path d="M379 379 c-4 -47 1 -122 8 -129 9 -9 339 -202 386 -227 25 -12 31
-13 45 0 10 8 67 42 128 77 102 57 113 66 142 119 18 31 46 80 63 110 28 51
29 53 7 39 -13 -8 -54 -32 -93 -53 -38 -21 -81 -46 -95 -56 -26 -18 -120 -72
-156 -90 -17 -9 -50 7 -214 102 -221 127 -220 126 -221 108z"/>
</g>
</svg>
