<svg width="180" height="30" viewBox="0 0 180 30" fill="none" xmlns="http://www.w3.org/2000/svg">
<path d="M19.3467 13.1122C19.3467 14.5369 19.1093 15.8666 18.6344 17.1012C18.1595 18.3359 17.4852 19.4282 16.6114 20.3779C15.7566 21.3087 14.7308 22.04 13.5341 22.5719C12.3564 23.1038 11.0647 23.3697 9.6591 23.3697C8.25345 23.3697 6.96177 23.1038 5.78406 22.5719C4.60635 22.04 3.58061 21.3087 2.70683 20.3779C1.85204 19.4282 1.1872 18.3359 0.712323 17.1012C0.237441 15.8666 0 14.5369 0 13.1122C0 11.6876 0.237441 10.3579 0.712323 9.12323C1.1872 7.88854 1.85204 6.8058 2.70683 5.87504C3.58061 4.92527 4.60635 4.18446 5.78406 3.65259C6.96177 3.12072 8.25345 2.85479 9.6591 2.85479C11.0647 2.85479 12.3564 3.12072 13.5341 3.65259C14.7308 4.18446 15.7566 4.92527 16.6114 5.87504C17.4852 6.8058 18.1595 7.88854 18.6344 9.12323C19.1093 10.3579 19.3467 11.6876 19.3467 13.1122ZM15.6426 13.1122C15.6426 11.8396 15.3862 10.6903 14.8733 9.6646C14.3604 8.61985 13.6576 7.79356 12.7648 7.18571C11.872 6.57786 10.8368 6.27394 9.6591 6.27394C8.48139 6.27394 7.44615 6.57786 6.55337 7.18571C5.66059 7.79356 4.95777 8.61036 4.4449 9.6361C3.95102 10.6618 3.70408 11.8206 3.70408 13.1122C3.70408 14.3849 3.95102 15.5436 4.4449 16.5884C4.95777 17.6141 5.66059 18.4309 6.55337 19.0388C7.44615 19.6466 8.48139 19.9505 9.6591 19.9505C10.8368 19.9505 11.872 19.6466 12.7648 19.0388C13.6576 18.4309 14.3604 17.6141 14.8733 16.5884C15.3862 15.5436 15.6426 14.3849 15.6426 13.1122Z" fill="#707070"/>
<path d="M30.225 7.55612C31.5546 7.55612 32.7419 7.89803 33.7866 8.58186C34.8503 9.2467 35.6861 10.168 36.294 11.3457C36.9208 12.5234 37.2342 13.891 37.2342 15.4487C37.2342 17.0063 36.9208 18.3834 36.294 19.5801C35.6861 20.7578 34.8598 21.6886 33.8151 22.3724C32.7893 23.0373 31.6306 23.3697 30.3389 23.3697C29.5791 23.3697 28.8668 23.2462 28.202 22.9993C27.5371 22.7523 26.9483 22.4389 26.4354 22.059C25.9415 21.6791 25.5521 21.2992 25.2672 20.9193C25.0013 20.5204 24.8683 20.188 24.8683 19.922L25.7516 19.5516V27.0453C25.7516 27.5392 25.5901 27.9475 25.2672 28.2705C24.9443 28.6124 24.5359 28.7833 24.042 28.7833C23.5481 28.7833 23.1397 28.6219 22.8168 28.299C22.4939 27.976 22.3324 27.5581 22.3324 27.0453V9.57912C22.3324 9.08524 22.4939 8.67684 22.8168 8.35392C23.1397 8.01201 23.5481 7.84105 24.042 7.84105C24.5359 7.84105 24.9443 8.01201 25.2672 8.35392C25.5901 8.67684 25.7516 9.08524 25.7516 9.57912V10.9753L25.2672 10.7188C25.2672 10.4719 25.4002 10.1775 25.6661 9.83555C25.932 9.47464 26.293 9.12323 26.7488 8.78131C27.2047 8.4204 27.7271 8.12598 28.316 7.89803C28.9238 7.67009 29.5601 7.55612 30.225 7.55612ZM29.7976 10.6903C28.9618 10.6903 28.2305 10.8993 27.6036 11.3172C26.9768 11.7351 26.4829 12.3049 26.122 13.0268C25.7801 13.7296 25.6091 14.5369 25.6091 15.4487C25.6091 16.3414 25.7801 17.1582 26.122 17.899C26.4829 18.6209 26.9768 19.1907 27.6036 19.6086C28.2305 20.0265 28.9618 20.2355 29.7976 20.2355C30.6334 20.2355 31.3552 20.0265 31.963 19.6086C32.5899 19.1907 33.0743 18.6209 33.4162 17.899C33.7771 17.1582 33.9576 16.3414 33.9576 15.4487C33.9576 14.5369 33.7771 13.7296 33.4162 13.0268C33.0743 12.3049 32.5899 11.7351 31.963 11.3172C31.3552 10.8993 30.6334 10.6903 29.7976 10.6903Z" fill="#707070"/>
<path d="M40.3949 8.12598H47.1478C47.6037 8.12598 47.9836 8.27794 48.2875 8.58186C48.5914 8.88579 48.7434 9.26569 48.7434 9.72158C48.7434 10.1585 48.5914 10.5289 48.2875 10.8328C47.9836 11.1177 47.6037 11.2602 47.1478 11.2602H40.3949C39.9391 11.2602 39.5592 11.1082 39.2552 10.8043C38.9513 10.5004 38.7993 10.1205 38.7993 9.6646C38.7993 9.2277 38.9513 8.86679 39.2552 8.58186C39.5592 8.27794 39.9391 8.12598 40.3949 8.12598ZM43.4437 4.56436C43.9376 4.56436 44.3365 4.73532 44.6404 5.07723C44.9633 5.40016 45.1248 5.80855 45.1248 6.30243V18.9818C45.1248 19.2477 45.1723 19.4662 45.2672 19.6371C45.3812 19.8081 45.5237 19.9315 45.6946 20.0075C45.8846 20.0835 46.084 20.1215 46.293 20.1215C46.5209 20.1215 46.7299 20.0835 46.9198 20.0075C47.1098 19.9125 47.3282 19.8651 47.5752 19.8651C47.8411 19.8651 48.0785 19.9885 48.2875 20.2355C48.5154 20.4824 48.6294 20.8243 48.6294 21.2612C48.6294 21.7931 48.335 22.23 47.7461 22.5719C47.1763 22.9138 46.5589 23.0848 45.8941 23.0848C45.4952 23.0848 45.0488 23.0563 44.5549 22.9993C44.08 22.9233 43.6241 22.7618 43.1873 22.5149C42.7694 22.249 42.4179 21.8501 42.133 21.3182C41.8481 20.7863 41.7056 20.055 41.7056 19.1242V6.30243C41.7056 5.80855 41.8671 5.40016 42.19 5.07723C42.5319 4.73532 42.9498 4.56436 43.4437 4.56436Z" fill="#707070"/>
<path d="M55.1024 21.3467C55.1024 21.8406 54.941 22.2585 54.618 22.6004C54.2951 22.9233 53.8867 23.0848 53.3928 23.0848C52.899 23.0848 52.4906 22.9233 52.1676 22.6004C51.8447 22.2585 51.6833 21.8406 51.6833 21.3467V9.57912C51.6833 9.08524 51.8447 8.67684 52.1676 8.35392C52.4906 8.01201 52.899 7.84105 53.3928 7.84105C53.8867 7.84105 54.2951 8.01201 54.618 8.35392C54.941 8.67684 55.1024 9.08524 55.1024 9.57912V21.3467ZM53.3643 5.98901C52.7185 5.98901 52.2626 5.88453 51.9967 5.67559C51.7308 5.46664 51.5978 5.09623 51.5978 4.56436V4.023C51.5978 3.47213 51.7402 3.10173 52.0252 2.91177C52.3291 2.70283 52.785 2.59835 53.3928 2.59835C54.0577 2.59835 54.5231 2.70283 54.789 2.91177C55.0549 3.12072 55.1879 3.49113 55.1879 4.023V4.56436C55.1879 5.11522 55.0454 5.49513 54.7605 5.70408C54.4756 5.89403 54.0102 5.98901 53.3643 5.98901Z" fill="#707070"/>
<path d="M66.6229 7.55612C68.1425 7.55612 69.2632 7.92653 69.9851 8.66734C70.7069 9.38916 71.1818 10.3294 71.4097 11.4881L70.9253 11.2317L71.1533 10.7758C71.3812 10.3389 71.7326 9.87354 72.2075 9.37966C72.6824 8.86679 73.2523 8.4394 73.9171 8.09748C74.6009 7.73657 75.3607 7.55612 76.1965 7.55612C77.5642 7.55612 78.5994 7.85055 79.3022 8.4394C80.0241 9.02825 80.5179 9.81656 80.7839 10.8043C81.0498 11.7731 81.1828 12.8558 81.1828 14.0525V21.3467C81.1828 21.8406 81.0213 22.2585 80.6984 22.6004C80.3755 22.9233 79.9671 23.0848 79.4732 23.0848C78.9793 23.0848 78.5709 22.9233 78.248 22.6004C77.9251 22.2585 77.7636 21.8406 77.7636 21.3467V14.0525C77.7636 13.4257 77.6877 12.8653 77.5357 12.3714C77.3837 11.8585 77.1083 11.4501 76.7094 11.1462C76.3105 10.8423 75.7406 10.6903 74.9998 10.6903C74.278 10.6903 73.6606 10.8423 73.1478 11.1462C72.6349 11.4501 72.2455 11.8585 71.9796 12.3714C71.7326 12.8653 71.6092 13.4257 71.6092 14.0525V21.3467C71.6092 21.8406 71.4477 22.2585 71.1248 22.6004C70.8019 22.9233 70.3935 23.0848 69.8996 23.0848C69.4057 23.0848 68.9973 22.9233 68.6744 22.6004C68.3515 22.2585 68.19 21.8406 68.19 21.3467V14.0525C68.19 13.4257 68.114 12.8653 67.9621 12.3714C67.8101 11.8585 67.5347 11.4501 67.1358 11.1462C66.7369 10.8423 66.167 10.6903 65.4262 10.6903C64.7044 10.6903 64.087 10.8423 63.5742 11.1462C63.0613 11.4501 62.6719 11.8585 62.4059 12.3714C62.159 12.8653 62.0355 13.4257 62.0355 14.0525V21.3467C62.0355 21.8406 61.8741 22.2585 61.5512 22.6004C61.2282 22.9233 60.8198 23.0848 60.326 23.0848C59.8321 23.0848 59.4237 22.9233 59.1008 22.6004C58.7778 22.2585 58.6164 21.8406 58.6164 21.3467V9.57912C58.6164 9.08524 58.7778 8.67684 59.1008 8.35392C59.4237 8.01201 59.8321 7.84105 60.326 7.84105C60.8198 7.84105 61.2282 8.01201 61.5512 8.35392C61.8741 8.67684 62.0355 9.08524 62.0355 9.57912V10.8043L61.6081 10.7188C61.7791 10.3959 62.0165 10.054 62.3205 9.69309C62.6244 9.31318 62.9948 8.96177 63.4317 8.63885C63.8686 8.31593 64.353 8.05949 64.8848 7.86954C65.4167 7.66059 65.9961 7.55612 66.6229 7.55612Z" fill="#707070"/>
<path d="M97.3632 7.55612C97.8571 7.55612 98.2655 7.71758 98.5884 8.0405C98.9113 8.36342 99.0728 8.78131 99.0728 9.29419V21.3467C99.0728 21.8406 98.9113 22.2585 98.5884 22.6004C98.2655 22.9233 97.8571 23.0848 97.3632 23.0848C96.8693 23.0848 96.4609 22.9233 96.138 22.6004C95.8151 22.2585 95.6536 21.8406 95.6536 21.3467V19.9505L96.2805 20.207C96.2805 20.4539 96.1475 20.7578 95.8816 21.1187C95.6156 21.4607 95.2547 21.8026 94.7988 22.1445C94.3429 22.4864 93.8016 22.7808 93.1747 23.0278C92.5669 23.2557 91.902 23.3697 91.1802 23.3697C89.8696 23.3697 88.6824 23.0373 87.6186 22.3724C86.5549 21.6886 85.7096 20.7578 85.0827 19.5801C84.4749 18.3834 84.171 17.0158 84.171 15.4772C84.171 13.9195 84.4749 12.5519 85.0827 11.3742C85.7096 10.1775 86.5454 9.2467 87.5901 8.58186C88.6349 7.89803 89.7936 7.55612 91.0663 7.55612C91.8831 7.55612 92.6334 7.67959 93.3172 7.92653C94.001 8.17346 94.5899 8.48689 95.0838 8.86679C95.5966 9.2467 95.986 9.6361 96.252 10.035C96.5369 10.4149 96.6794 10.7378 96.6794 11.0038L95.6536 11.3742V9.29419C95.6536 8.80031 95.8151 8.39191 96.138 8.06899C96.4609 7.72708 96.8693 7.55612 97.3632 7.55612ZM91.6076 20.2355C92.4434 20.2355 93.1747 20.0265 93.8016 19.6086C94.4284 19.1907 94.9128 18.6209 95.2547 17.899C95.6156 17.1772 95.7961 16.3699 95.7961 15.4772C95.7961 14.5654 95.6156 13.7486 95.2547 13.0268C94.9128 12.3049 94.4284 11.7351 93.8016 11.3172C93.1747 10.8993 92.4434 10.6903 91.6076 10.6903C90.7908 10.6903 90.069 10.8993 89.4422 11.3172C88.8153 11.7351 88.3214 12.3049 87.9605 13.0268C87.6186 13.7486 87.4477 14.5654 87.4477 15.4772C87.4477 16.3699 87.6186 17.1772 87.9605 17.899C88.3214 18.6209 88.8153 19.1907 89.4422 19.6086C90.069 20.0265 90.7908 20.2355 91.6076 20.2355Z" fill="#707070"/>
<path d="M106.479 21.3467C106.479 21.8406 106.308 22.2585 105.966 22.6004C105.643 22.9233 105.235 23.0848 104.741 23.0848C104.266 23.0848 103.867 22.9233 103.544 22.6004C103.221 22.2585 103.06 21.8406 103.06 21.3467V3.73807C103.06 3.24419 103.221 2.83579 103.544 2.51287C103.886 2.17096 104.304 2 104.798 2C105.292 2 105.691 2.17096 105.995 2.51287C106.317 2.83579 106.479 3.24419 106.479 3.73807V21.3467Z" fill="#707070"/>
<path d="M132.607 3.05424C133.044 3.05424 133.462 3.22519 133.861 3.56711C134.26 3.89003 134.459 4.33642 134.459 4.90628C134.459 5.07724 134.43 5.26719 134.373 5.47614L128.76 22.002C128.646 22.3439 128.437 22.6099 128.134 22.7998C127.849 22.9708 127.545 23.0658 127.222 23.0848C126.899 23.0848 126.576 22.9898 126.253 22.7998C125.949 22.6099 125.712 22.3344 125.541 21.9735L121.324 12.3999L121.58 12.5709L117.42 21.9735C117.249 22.3344 117.002 22.6099 116.679 22.7998C116.375 22.9898 116.062 23.0848 115.739 23.0848C115.435 23.0658 115.131 22.9708 114.827 22.7998C114.523 22.6099 114.314 22.3439 114.201 22.002L108.587 5.47614C108.53 5.26719 108.502 5.07724 108.502 4.90628C108.502 4.33642 108.701 3.89003 109.1 3.56711C109.518 3.22519 109.946 3.05424 110.382 3.05424C110.743 3.05424 111.076 3.14921 111.38 3.33917C111.703 3.52912 111.921 3.80455 112.035 4.16546L116.565 17.899L115.939 17.8706L119.985 8.15447C120.137 7.81255 120.355 7.54662 120.64 7.35667C120.925 7.14772 121.248 7.05274 121.609 7.07174C121.97 7.05274 122.292 7.14772 122.577 7.35667C122.862 7.54662 123.071 7.81255 123.204 8.15447L126.908 17.4432L126.452 17.7281L130.926 4.16546C131.04 3.80455 131.258 3.52912 131.581 3.33917C131.904 3.14921 132.246 3.05424 132.607 3.05424Z" fill="#707070"/>
<path d="M151.148 15.4772C151.148 17.0348 150.796 18.4119 150.093 19.6086C149.41 20.7863 148.479 21.7076 147.301 22.3724C146.142 23.0373 144.841 23.3697 143.398 23.3697C141.954 23.3697 140.643 23.0373 139.465 22.3724C138.307 21.7076 137.376 20.7863 136.673 19.6086C135.989 18.4119 135.647 17.0348 135.647 15.4772C135.647 13.9195 135.989 12.5519 136.673 11.3742C137.376 10.1775 138.307 9.2467 139.465 8.58186C140.643 7.89803 141.954 7.55612 143.398 7.55612C144.841 7.55612 146.142 7.89803 147.301 8.58186C148.479 9.2467 149.41 10.1775 150.093 11.3742C150.796 12.5519 151.148 13.9195 151.148 15.4772ZM147.728 15.4772C147.728 14.5084 147.529 13.6726 147.13 12.9698C146.75 12.248 146.228 11.6876 145.563 11.2887C144.917 10.8898 144.195 10.6903 143.398 10.6903C142.6 10.6903 141.868 10.8898 141.204 11.2887C140.558 11.6876 140.035 12.248 139.636 12.9698C139.257 13.6726 139.067 14.5084 139.067 15.4772C139.067 16.4269 139.257 17.2627 139.636 17.9845C140.035 18.6874 140.558 19.2382 141.204 19.6371C141.868 20.036 142.6 20.2355 143.398 20.2355C144.195 20.2355 144.917 20.036 145.563 19.6371C146.228 19.2382 146.75 18.6874 147.13 17.9845C147.529 17.2627 147.728 16.4269 147.728 15.4772Z" fill="#707070"/>
<path d="M155.85 23.0848C155.356 23.0848 154.947 22.9233 154.624 22.6004C154.301 22.2585 154.14 21.8406 154.14 21.3467V9.57912C154.14 9.08524 154.301 8.67684 154.624 8.35392C154.947 8.01201 155.356 7.84105 155.85 7.84105C156.343 7.84105 156.752 8.01201 157.075 8.35392C157.398 8.67684 157.559 9.08524 157.559 9.57912V12.2575L157.36 10.3484C157.569 9.89254 157.835 9.49364 158.158 9.15172C158.499 8.79081 158.879 8.49639 159.297 8.26844C159.715 8.0215 160.162 7.84105 160.636 7.72708C161.111 7.6131 161.586 7.55612 162.061 7.55612C162.631 7.55612 163.106 7.71758 163.486 8.0405C163.885 8.36342 164.084 8.74332 164.084 9.18022C164.084 9.80706 163.923 10.2629 163.6 10.5479C163.277 10.8138 162.925 10.9468 162.545 10.9468C162.185 10.9468 161.852 10.8803 161.548 10.7473C161.263 10.6144 160.931 10.5479 160.551 10.5479C160.209 10.5479 159.858 10.6334 159.497 10.8043C159.155 10.9563 158.832 11.2032 158.528 11.5451C158.243 11.887 158.006 12.3144 157.816 12.8273C157.645 13.3212 157.559 13.91 157.559 14.5939V21.3467C157.559 21.8406 157.398 22.2585 157.075 22.6004C156.752 22.9233 156.343 23.0848 155.85 23.0848Z" fill="#707070"/>
<path d="M168.489 23.0848C167.995 23.0848 167.587 22.9233 167.264 22.6004C166.941 22.2585 166.779 21.8406 166.779 21.3467V3.73807C166.779 3.24419 166.941 2.83579 167.264 2.51287C167.587 2.17096 167.995 2 168.489 2C168.983 2 169.391 2.17096 169.714 2.51287C170.037 2.83579 170.198 3.24419 170.198 3.73807V21.3467C170.198 21.8406 170.037 22.2585 169.714 22.6004C169.391 22.9233 168.983 23.0848 168.489 23.0848ZM177.55 7.84105C177.986 7.84105 178.366 8.0215 178.689 8.38241C179.012 8.74332 179.174 9.09474 179.174 9.43665C179.174 9.89254 178.946 10.3199 178.49 10.7188L169.914 18.6114L169.771 14.6793L176.296 8.38241C176.657 8.0215 177.075 7.84105 177.55 7.84105ZM177.977 23.0563C177.483 23.0563 177.065 22.8663 176.723 22.4864L171.452 16.9018L174.045 14.5084L179.174 20.093C179.535 20.4729 179.715 20.9003 179.715 21.3752C179.715 21.8691 179.516 22.2775 179.117 22.6004C178.737 22.9043 178.357 23.0563 177.977 23.0563Z" fill="#707070"/>
<path d="M11.3034 2.98291L8.99902 13.8263C8.99902 13.9688 9.07026 14.0756 9.21272 14.1112C9.24834 14.1112 9.24834 14.1112 9.28395 14.1112C9.3908 14.1112 9.49765 14.04 9.53327 13.9688L18.6387 9.10217C17.7908 6.63206 15.3757 3.77133 11.5861 3.02514C11.4792 3.02514 11.4103 2.98291 11.3034 2.98291Z" fill="#EBB947"/>
</svg>
